<svg xmlns="http://www.w3.org/2000/svg" xmlns:xlink="http://www.w3.org/1999/xlink"><symbol id="arrow-down" viewBox="0 0 13 29"><path fill-rule="evenodd" clip-rule="evenodd" d="M5.665 26.196L.943 21.999 0 23.06l5.861 5.21.472.42.471-.42 5.861-5.21-.943-1.06-4.637 4.121V.892h-1.42v25.304z"/></symbol><symbol id="box" viewBox="0 0 62 67"><path fill-rule="evenodd" clip-rule="evenodd" d="M31.46 1.122L62 16.392v34.746L31.449 65.904l-.029.014-.42.203-.42-.203-.017-.008-.012-.006L0 51.138V16.392l1.534-.767.019-.01 29-14.5.019-.009L31 .892l.436.218.023.012zM15.235 11.01L21 8.128 48.264 21.76l-5.766 2.883a.985.985 0 00-.05-.027L15.235 11.01zM44 26.128l4.5-2.25v9.259L44 35.39v-9.263zm-2 12.501V27.128l-10 5v31.264l28-14V18.128l-9.508 4.754c.005.042.008.085.008.128v11.362L42 38.629zM13 12.128L40.264 25.76 31 30.392 3.736 16.76 13 12.128zm37.498 8.515l7.766-3.883L31 3.128 23.236 7.01l27.211 13.606a.985.985 0 01.051.027zM2 18.128l28 14v31.288L2 49.883V18.128zm3.447 20.988a1 1 0 10-.894 1.788l8 4a1 1 0 10.894-1.788l-8-4zm-1.341 5.447a1 1 0 011.341-.447l4 2a1 1 0 11-.894 1.788l-4-2a1 1 0 01-.447-1.341z" fill="#01488A"/></symbol><symbol id="close" viewBox="0 0 24 24"><path d="M13.41 12l4.3-4.29a1 1 0 10-1.42-1.42L12 10.59l-4.29-4.3a1 1 0 00-1.42 1.42l4.3 4.29-4.3 4.29a1 1 0 000 1.42 1 1 0 001.42 0l4.29-4.3 4.29 4.3a1 1 0 001.42 0 1 1 0 000-1.42z"/></symbol><symbol id="gear" viewBox="0 0 63 65"><g fill="#01488a"><path d="M26.5 3.7c-.3 1.5-1.4 3.6-2.2 4.5-1.7 1.9-7.8 2.5-8.8.8-1.1-1.8-4.1-1.1-6.5 1.5-2 2.1-2.2 2.8-1.2 5 2.7 5.9 1 10.1-5.1 12.4-2.5 1-2.8 1.5-2.5 5.2.3 3.7.6 4.3 3.8 5.3 4.5 1.4 5.9 5 4 10.5-1.1 3.3-1.1 4.3 0 5.6 2.5 3 4.7 3.6 7.7 2 1.5-.8 3.3-1.5 3.9-1.5 2.3 0 6.4 4.2 6.4 6.5 0 2.5 1.7 3.5 6.1 3.5 2.5 0 3.3-.6 4.4-3.3 2.3-5.7 5.7-7.2 10.3-5 3.7 1.8 5.5 1.3 7.8-2.2 1.5-2.3 1.5-2.8.1-5.6-2.6-5.4-.4-9.2 6.6-11.3 1.4-.5 1.8-1.4 1.5-4.8-.3-3.7-.7-4.3-3.6-5.2-1.8-.6-3.7-1.8-4.2-2.6-1.3-2-1.3-7.7 0-8.5 1.8-1.1 1.1-4.1-1.5-6.5-2.1-2-2.8-2.2-5-1.2-5.9 2.7-10.9.6-11.7-4.8-.3-2.2-.8-2.5-4.9-2.8-4.4-.3-4.7-.1-5.4 2.5zM35 5c0 1.2 1.1 3.2 2.6 4.6 2.6 2.6 6 2.9 12.1.9 3.2-1 4.8 2.5 3.2 7-1.8 4.9-.3 8.5 4.4 10.9 3.4 1.6 3.8 2.2 3.5 5-.2 2.3-.8 3.2-2.5 3.4-4.9.7-7.9 8.4-5.2 13.4.9 1.7.7 2.4-.9 4s-2.3 1.8-4 .9C42.9 52.3 35 55.8 35 61c0 1.6-.6 2-3.5 2s-3.5-.4-3.5-2c0-5.2-7.9-8.7-13.2-5.9-1.6.9-2.4.7-4.4-1.2-2.1-2-2.2-2.4-.9-4.3 3.2-4.5.4-11.6-5-13-2.1-.5-2.5-1.2-2.5-4.1 0-2.9.4-3.5 2-3.5 1.2 0 3.2-1.1 4.6-2.6 2.1-2 2.5-3.2 2.2-6.2-.3-2-.8-4.4-1.2-5.3-1-2.4 2.1-5.2 4.8-4.4 5.9 1.9 8.5 1.7 11-.9C26.8 8.2 28 6.2 28 5c0-1.6.6-2 3.5-2s3.5.4 3.5 2z"/><path d="M25.6 15c-4.2 1.3-9.3 6.7-11.2 11.6C9.2 40.2 22 54.8 35.8 51.1 43.7 48.9 49.9 41 50 33c0-4.8-3.7-11.7-8.2-15.3-4.1-3.3-10.9-4.4-16.2-2.7zm12.8 2.4c5.3 2.2 8.9 7.8 9.4 14.6.5 7.1-.8 8.3-4.9 4.4-2.3-2.2-2.9-3.6-2.9-7.2 0-6-4-10.2-9.9-10.2-4.8 0-5.1.8-1.6 4 3.2 3.1 3.4 7.5.3 8.4-1.7.4-3.1-.3-5.3-2.4-1.7-1.7-3.4-3-3.8-3-.4 0-.7 1.8-.7 4.1 0 5.8 4.2 9.9 10.2 9.9 3.7 0 4.9.5 7.8 3.5 1.8 1.9 3.2 3.6 2.9 3.8-6 5.3-18 2.2-22.7-5.8-4.7-8.2-1.1-20.5 7.2-24.1 4-1.7 9.8-1.8 14 0zM34.9 22c2.4 1.2 4.5 6.4 3.7 9.2-.4 1.8.4 3.3 3.5 6.4l4 4.1-2 2.4-2 2.4-3.9-3.9c-3.4-3.2-4.7-3.8-8.7-4-5.4-.2-8.5-2.9-8.5-7.4v-2.5l2.4 2.2c1.7 1.6 3.3 2.2 5.7 1.9 3-.3 3.4-.7 3.7-3.7.3-2.4-.3-4-1.9-5.7L28.7 21h2.2c1.2 0 3 .4 4 1z"/></g></symbol><symbol id="machine" viewBox="0 0 64 66"><path fill-rule="evenodd" clip-rule="evenodd" d="M25.5 52.892l-.028-2H56.5v2h-31zm-.497-35.797l.441 31.797h7.247c-4.388-2.146-4.691-7-4.691-7v-12h19v2h1a5 5 0 010 10h-1s-.303 4.854-4.691 7H57.3a1.2 1.2 0 011.2 1.2v2.8H64v5a8 8 0 01-8 8H7a7 7 0 01-7-7v-57a1 1 0 011-1h46a8 8 0 018 8v7a1 1 0 01-1 1h-8v1c0 .711-.148 1.388-.416 2H51v-1a1 1 0 011-1h9a3 3 0 110 6h-9a1 1 0 01-1-1v-1h-7c-.835.628-1.874 1-3 1h-1v3a2 2 0 01-2 2h-1a2 2 0 01-2-2v-3h-1a5 5 0 01-5-5v-1h-3.797a.2.2 0 00-.2.203zM31 16.892h13v1a3 3 0 01-3 3h-7a3 3 0 01-3-3v-1zm22-2H25.203a2.2 2.2 0 00-2.2 2.23l.497 35.77H2v-50h45a6 6 0 016 6v6zm-8 26.911v-4.94c-.502-.343-1.373-.708-2.46-.855-1.308-.177-2.765-.014-4.025.742l-.053.031-.056.025c-2.366 1.052-4.247 1.351-5.81 1.207A7.673 7.673 0 0130 37.297v4.506l.019.15a7.643 7.643 0 001.052 2.88c.906 1.449 2.658 3.06 6.429 3.06 3.771 0 5.523-1.611 6.429-3.06A7.643 7.643 0 0045 41.802zm0-7.193v-2.718H30v3.134l.015.009c.775.465 1.625.881 2.765.986 1.135.105 2.654-.09 4.76-1.02 1.727-1.014 3.645-1.195 5.27-.975.78.106 1.53.31 2.19.584zm2 5.282h1a3 3 0 000-6h-1v6zm15 15H2v4a5 5 0 005 5h49a6 6 0 006-6v-3zm-53-46a1 1 0 011-1h35a1 1 0 110 2H10a1 1 0 01-1-1zm-5-1a1 1 0 000 2h2a1 1 0 100-2H4zm44 1a1 1 0 011-1h2a1 1 0 110 2h-2a1 1 0 01-1-1zm-39 17h8a1 1 0 011 1v19a1 1 0 01-1 1H9a1 1 0 01-1-1v-19a1 1 0 011-1zm-3 1a3 3 0 013-3h8a3 3 0 013 3v19a3 3 0 01-3 3H9a3 3 0 01-3-3v-19zm7 6a1 1 0 100-2 1 1 0 000 2zm0 2a3 3 0 100-6 3 3 0 000 6zm1 6a1 1 0 11-2 0 1 1 0 012 0zm2 0a3 3 0 11-6 0 3 3 0 016 0zm-11 16a1 1 0 011 1 2 2 0 002 2h48a2 2 0 002-2 1 1 0 112 0 4 4 0 01-4 4H8a4 4 0 01-4-4 1 1 0 011-1zm48-35h8a1 1 0 100-2h-8v2zm-16 2h1v2h-1v-2z" fill="#01488A"/></symbol><symbol id="person" viewBox="0 0 56 66"><path fill-rule="evenodd" clip-rule="evenodd" d="M12.127 19.021c.381-4.199 1.618-7.894 3.704-10.67 2.521-3.357 6.345-5.459 11.669-5.459 5.325 0 9.148 2.102 11.67 5.459 2.085 2.776 3.322 6.471 3.703 10.67a2.999 2.999 0 00-.873-.129h-3v-2.5c0-6.351-5.149-11.5-11.5-11.5S16 10.041 16 16.392v2.5h-3a2.96 2.96 0 00-.873.13zM10 21.892c0-5.664 1.344-10.898 4.232-14.743C17.148 3.268 21.575.892 27.5.892c5.925 0 10.352 2.376 13.268 6.257C43.656 10.994 45 16.228 45 21.892v7a3 3 0 01-3 3h-3.01a11.465 11.465 0 01-3.496 7.768l1.725 3.772c6.402 1.922 10.265 4.155 12.752 6.512 2.538 2.406 3.563 4.872 4.412 6.986 1.46 3.632 1.61 6.691 1.617 7.67a1.285 1.285 0 01-1.29 1.292H1.29A1.285 1.285 0 010 64.599c.007-.978.157-4.038 1.617-7.67.849-2.113 1.874-4.58 4.412-6.985 2.487-2.357 6.35-4.59 12.752-6.512l1.352-2.956a.986.986 0 01.1-.17 11.535 11.535 0 01-3.32-4.414H14.3a1.3 1.3 0 01-1.3-1.3v-2.7a3 3 0 01-3-3v-7zm33 0a1 1 0 00-1-1h-2v9h2a1 1 0 001-1v-7zm-6-5.5v5.496c-1.816-.055-3.792-.699-5.696-1.641-2.52-1.248-4.743-2.934-6.002-4.091l-.342-.314-.46.058c-2.467.312-4.575 1.219-6.158 2.17-.116.07-.23.14-.342.211v-1.889a9.5 9.5 0 0119 0zm-6.583 5.647c2.018 1 4.322 1.795 6.583 1.85v7.503a9.5 9.5 0 01-17.869 4.5H28a1 1 0 100-2h-9.668a9.512 9.512 0 01-.332-2.5V20.723a13.75 13.75 0 011.372-.94c1.303-.782 2.989-1.518 4.934-1.835 1.41 1.237 3.618 2.857 6.11 4.091zM16.272 33.892a11.504 11.504 0 01-.261-2H15v2h1.273zm4.196 10.661l.787-1.72 4.94 3.705-4.99 3.92c-.667-2.07-.969-4.036-.8-5.785a1.37 1.37 0 00.063-.12zm1.939 8.947a30.318 30.318 0 01-.472-1.072l5.916-4.648 6.21 4.657c-.147.353-.303.707-.468 1.063-1.413 3.055-3.423 6.12-5.593 8.82-2.169-2.699-4.179-5.765-5.593-8.82zM28 63.892zm1.3 0h24.673c-.08-1.242-.377-3.559-1.445-6.217-.832-2.07-1.727-4.188-3.933-6.28-2.066-1.958-5.35-3.95-10.954-5.739 0 2.782-.89 5.783-2.233 8.684-1.553 3.354-3.761 6.679-6.108 9.552zm6.295-19.22a1.272 1.272 0 01-.063-.119l-.944-2.066-5.109 4.014 5.308 3.981c.673-2.08.977-4.054.808-5.81zM20.592 54.34c1.553 3.354 3.761 6.679 6.108 9.552H2.027c.08-1.242.377-3.559 1.445-6.217.832-2.07 1.727-4.188 3.933-6.28 2.066-1.958 5.35-3.95 10.954-5.739 0 2.782.89 5.783 2.233 8.684zm11.404-12.36c-1.381.587-2.9.912-4.496.912-1.257 0-2.466-.202-3.599-.574l3.922 2.94 4.173-3.278zM13 20.892h2v9h-2a1 1 0 01-1-1v-7a1 1 0 011-1z" fill="#01488A"/></symbol></svg>